<?xml version="1.0" encoding="UTF-8" standalone="no"?>
<svg
   xmlns:dc="http://purl.org/dc/elements/1.1/"
   xmlns:cc="http://creativecommons.org/ns#"
   xmlns:rdf="http://www.w3.org/1999/02/22-rdf-syntax-ns#"
   xmlns:svg="http://www.w3.org/2000/svg"
   xmlns="http://www.w3.org/2000/svg"
   viewBox="0 0 1228.124 728.0733"
   height="728.0733"
   width="1228.124"
   xml:space="preserve"
   id="svg2"
   version="1.1"><metadata
     id="metadata8"><rdf:RDF><cc:Work
         rdf:about=""><dc:format>image/svg+xml</dc:format><dc:type
           rdf:resource="http://purl.org/dc/dcmitype/StillImage" /></cc:Work></rdf:RDF></metadata><defs
     id="defs6"><clipPath
       id="clipPath18"
       clipPathUnits="userSpaceOnUse"><path
         id="path16"
         d="m 502.034,310.509 c -14.447,-0.177 -32.087,-3.118 -45.076,-6.301 v 0 c -4.223,-1.035 -14.826,-3.005 -13.079,-4.847 v 0 c 1.79,0.807 6.929,0.807 8.72,0 v 0 c 51.7,-4.943 85.339,-27.939 125.35,-44.573 v 0 c 10.625,10.647 19.703,22.832 26.876,36.198 v 0 c -22.31,9.253 -44.607,18.521 -75.167,19.523 v 0 z" /></clipPath><linearGradient
       id="linearGradient36"
       spreadMethod="pad"
       gradientTransform="matrix(181.45117,0,0,-181.45117,443.68652,278.52197)"
       gradientUnits="userSpaceOnUse"
       y2="0"
       x2="1"
       y1="0"
       x1="0"><stop
         id="stop24"
         offset="0"
         style="stop-opacity:1;stop-color:#daf1fd" /><stop
         id="stop26"
         offset="0.09448415"
         style="stop-opacity:1;stop-color:#44c8f5" /><stop
         id="stop28"
         offset="0.27272"
         style="stop-opacity:1;stop-color:#44c8f5" /><stop
         id="stop30"
         offset="0.39886061"
         style="stop-opacity:1;stop-color:#44c8f5" /><stop
         id="stop32"
         offset="0.854538"
         style="stop-opacity:1;stop-color:#0081b2" /><stop
         id="stop34"
         offset="1"
         style="stop-opacity:1;stop-color:#0081b2" /></linearGradient><clipPath
       id="clipPath46"
       clipPathUnits="userSpaceOnUse"><path
         id="path44"
         d="m 363.424,269.798 c 38.47,-2.684 63.16,-21.727 92.083,-34.894 v 0 c 16.765,-7.633 33.618,-14.866 52.419,-20.441 v 0 c 22.288,5.858 42.611,16.565 59.768,30.929 v 0 c -39.782,16.736 -73.524,39.507 -124.788,44.761 v 0 c -0.738,0.117 -1.655,0.056 -2.572,-0.007 v 0 c -1.507,-0.1 -3.016,-0.201 -3.73,0.493 v 0 c -1.069,0.029 -2.119,0.043 -3.16,0.043 v 0 c -30.3,-0.001 -48.498,-12.108 -70.02,-20.884" /></clipPath><linearGradient
       id="linearGradient64"
       spreadMethod="pad"
       gradientTransform="matrix(228.75488,0,0,-228.75488,363.42383,248.01221)"
       gradientUnits="userSpaceOnUse"
       y2="0"
       x2="1"
       y1="0"
       x1="0"><stop
         id="stop52"
         offset="0"
         style="stop-opacity:1;stop-color:#daf1fd" /><stop
         id="stop54"
         offset="0.09448415"
         style="stop-opacity:1;stop-color:#44c8f5" /><stop
         id="stop56"
         offset="0.27272"
         style="stop-opacity:1;stop-color:#44c8f5" /><stop
         id="stop58"
         offset="0.39886061"
         style="stop-opacity:1;stop-color:#44c8f5" /><stop
         id="stop60"
         offset="0.854538"
         style="stop-opacity:1;stop-color:#0081b2" /><stop
         id="stop62"
         offset="1"
         style="stop-opacity:1;stop-color:#0081b2" /></linearGradient><clipPath
       id="clipPath74"
       clipPathUnits="userSpaceOnUse"><path
         id="path72"
         d="m 468.529,209.398 c 4.647,0 9.244,0.204 13.787,0.606 v 0 c -28.486,10.32 -54.325,24.229 -80.608,36.045 v 0 c -14.811,6.664 -29.647,12.994 -47.493,14.057 v 0 c -0.059,0.004 -0.117,0.007 -0.175,0.01 v 0 c 28.279,-31.152 69.102,-50.718 114.489,-50.718" /></clipPath><linearGradient
       id="linearGradient92"
       spreadMethod="pad"
       gradientTransform="matrix(230.69629,0,0,-230.69629,305.74805,218.96582)"
       gradientUnits="userSpaceOnUse"
       y2="0"
       x2="1"
       y1="0"
       x1="0"><stop
         id="stop80"
         offset="0"
         style="stop-opacity:1;stop-color:#daf1fd" /><stop
         id="stop82"
         offset="0.09448415"
         style="stop-opacity:1;stop-color:#44c8f5" /><stop
         id="stop84"
         offset="0.27272"
         style="stop-opacity:1;stop-color:#44c8f5" /><stop
         id="stop86"
         offset="0.39886061"
         style="stop-opacity:1;stop-color:#44c8f5" /><stop
         id="stop88"
         offset="0.854538"
         style="stop-opacity:1;stop-color:#0081b2" /><stop
         id="stop90"
         offset="1"
         style="stop-opacity:1;stop-color:#0081b2" /></linearGradient><clipPath
       id="clipPath102"
       clipPathUnits="userSpaceOnUse"><path
         id="path100"
         d="M 273.874,490.737 C 233.468,462.853 226.575,410.81 250.975,363.976 v 0 c 6.681,-12.828 32.495,-10.872 48.986,-8.917 v 0 c 8.232,0.976 14.141,1.952 14.184,1.089 v 0 c 4.078,-81.734 71.64,-146.75 154.384,-146.75 v 0 c 80.313,0 146.317,61.244 153.862,139.578 v 0 c 0.236,2.453 17.746,2.294 35.296,2.134 v 0 c 17.757,-0.161 35.557,-0.322 35.557,2.223 v 0 c 0,50.545 10.31,100.612 -27.196,128.816 v 0 c -25.847,19.435 -162.688,36.407 -197.519,36.407 v 0 c -32.562,0 -169.738,-10.624 -194.655,-27.819" /></clipPath><clipPath
       id="clipPath118"
       clipPathUnits="userSpaceOnUse"><path
         id="path116"
         d="m 339.259,360.088 c 0,-1.103 0.014,-2.207 0.042,-3.304 v 0 c 30.423,9.585 83.397,21.515 129.051,7.55 v 0 c 62.551,-19.133 84.664,-48.92 120.419,-49.622 v 0 c 5.312,14.115 8.216,29.404 8.216,45.376 v 0 c 0,71.172 -57.694,128.865 -128.863,128.865 v 0 c -71.169,0 -128.865,-57.693 -128.865,-128.865" /></clipPath><radialGradient
       id="radialGradient130"
       spreadMethod="pad"
       gradientTransform="matrix(131.15213,0,0,-131.15213,468.12402,360.08887)"
       gradientUnits="userSpaceOnUse"
       r="1"
       cy="0"
       cx="0"
       fy="0"
       fx="0"><stop
         id="stop124"
         offset="0"
         style="stop-opacity:1;stop-color:#fff200" /><stop
         id="stop126"
         offset="0.68896091"
         style="stop-opacity:1;stop-color:#fff200" /><stop
         id="stop128"
         offset="1"
         style="stop-opacity:1;stop-color:#f99f1b" /></radialGradient><clipPath
       id="clipPath140"
       clipPathUnits="userSpaceOnUse"><path
         id="path138"
         d="M 278.375,493.242 C 270.194,448.337 257.951,374.434 257.951,372.923 v 0 c 0,-1.365 22.775,-11.19 39.369,-18.167 v 0 c 0.903,0.1 1.784,0.201 2.641,0.303 v 0 c 8.232,0.976 14.141,1.952 14.184,1.089 v 0 c 0.138,-2.769 0.35,-5.522 0.631,-8.25 v 0 c 6.855,2.934 87.812,36.553 153.576,16.436 v 0 c 76.038,-23.258 92.319,-62.261 145.991,-45.622 v 0 c 0.763,0.237 1.52,0.497 2.269,0.779 v 0 c 2.842,9.476 4.801,19.339 5.779,29.485 v 0 c 0.199,2.073 12.729,2.281 27.195,2.199 v 0 c 22.598,37.815 32.364,95.334 34.569,110.021 v 0 c -1.114,2.072 -2.34,4.087 -3.691,6.045 v 0 c -7.464,4.518 -24.229,14.662 -44.783,27.074 v 0 c -50.111,13.84 -139.887,24.241 -167.152,24.241 v 0 c -30.95,0 -156.412,-9.597 -190.154,-25.314" /></clipPath><clipPath
       id="clipPath172"
       clipPathUnits="userSpaceOnUse"><path
         id="path170"
         d="M 0,546.055 H 921.093 V 0 H 0 Z" /></clipPath><clipPath
       id="clipPath212"
       clipPathUnits="userSpaceOnUse"><path
         id="path210"
         d="m 580.481,240.724 c 22.863,-2.505 45.676,-5.725 68.417,-9.589 v 0 c 28.283,-4.779 56.445,-10.594 84.487,-17.27 v 0 c 28.082,-6.596 55.942,-14.265 83.692,-23.053 v 0 c -25.4,14.385 -52.468,25.579 -79.819,35.875 v 0 c -27.445,10.089 -55.539,18.513 -84.023,25.454 v 0 c -16.876,4.084 -33.902,7.636 -51.042,10.628 v 0 c -5.408,-6.396 -12.655,-14.138 -21.712,-22.045 m -276.942,14.137 c -28.588,-6.75 -56.757,-15.206 -84.123,-25.683 v 0 c -13.642,-5.355 -27.173,-10.938 -40.352,-17.289 v 0 c -13.162,-6.351 -26.163,-13.096 -38.377,-21.077 v 0 c 6.784,2.647 13.592,5.127 20.474,7.403 v 0 c 6.847,2.349 13.722,4.582 20.638,6.67 v 0 c 13.824,4.183 27.662,8.181 41.646,11.594 v 0 c 27.894,7.043 55.998,12.862 84.261,17.417 v 0 c 16.005,2.598 32.054,4.806 48.142,6.625 v 0 c -8.18,7.55 -14.704,14.958 -19.628,21.199 v 0 c -10.948,-2.035 -21.844,-4.321 -32.681,-6.859" /></clipPath><radialGradient
       id="radialGradient226"
       spreadMethod="pad"
       gradientTransform="matrix(240.9509,0,0,-240.9509,478.88184,232.5083)"
       gradientUnits="userSpaceOnUse"
       r="1"
       cy="0"
       cx="0"
       fy="0"
       fx="0"><stop
         id="stop218"
         offset="0"
         style="stop-opacity:1;stop-color:#daf1fd" /><stop
         id="stop220"
         offset="0.539398"
         style="stop-opacity:1;stop-color:#44c8f5" /><stop
         id="stop222"
         offset="0.63925847"
         style="stop-opacity:1;stop-color:#44c8f5" /><stop
         id="stop224"
         offset="1"
         style="stop-opacity:1;stop-color:#0081b2" /></radialGradient></defs><g
     transform="matrix(1.3333333,0,0,-1.3333333,0,728.07333)"
     id="g10"><g
       id="g12"><g
         clip-path="url(#clipPath18)"
         id="g14"><g
           id="g20"><g
             id="g22"><path
               id="path38"
               style="fill:url(#linearGradient36);stroke:none"
               d="m 502.034,310.509 c -14.447,-0.177 -32.087,-3.118 -45.076,-6.301 v 0 c -4.223,-1.035 -14.826,-3.005 -13.079,-4.847 v 0 c 1.79,0.807 6.929,0.807 8.72,0 v 0 c 51.7,-4.943 85.339,-27.939 125.35,-44.573 v 0 c 10.625,10.647 19.703,22.832 26.876,36.198 v 0 c -22.31,9.253 -44.607,18.521 -75.167,19.523 v 0 z" /></g></g></g></g><g
       id="g40"><g
         clip-path="url(#clipPath46)"
         id="g42"><g
           id="g48"><g
             id="g50"><path
               id="path66"
               style="fill:url(#linearGradient64);stroke:none"
               d="m 363.424,269.798 c 38.47,-2.684 63.16,-21.727 92.083,-34.894 v 0 c 16.765,-7.633 33.618,-14.866 52.419,-20.441 v 0 c 22.288,5.858 42.611,16.565 59.768,30.929 v 0 c -39.782,16.736 -73.524,39.507 -124.788,44.761 v 0 c -0.738,0.117 -1.655,0.056 -2.572,-0.007 v 0 c -1.507,-0.1 -3.016,-0.201 -3.73,0.493 v 0 c -1.069,0.029 -2.119,0.043 -3.16,0.043 v 0 c -30.3,-0.001 -48.498,-12.108 -70.02,-20.884" /></g></g></g></g><g
       id="g68"><g
         clip-path="url(#clipPath74)"
         id="g70"><g
           id="g76"><g
             id="g78"><path
               id="path94"
               style="fill:url(#linearGradient92);stroke:none"
               d="m 468.529,209.398 c 4.647,0 9.244,0.204 13.787,0.606 v 0 c -28.486,10.32 -54.325,24.229 -80.608,36.045 v 0 c -14.811,6.664 -29.647,12.994 -47.493,14.057 v 0 c -0.059,0.004 -0.117,0.007 -0.175,0.01 v 0 c 28.279,-31.152 69.102,-50.718 114.489,-50.718" /></g></g></g></g><g
       id="g96"><g
         clip-path="url(#clipPath102)"
         id="g98"><g
           transform="translate(446.3555,342.7671)"
           id="g104"><path
             id="path106"
             style="fill:#84c442;fill-opacity:1;fill-rule:evenodd;stroke:none"
             d="m 0,0 c -55.705,-3.072 -95.419,-22.135 -136.617,-39.713 -3.496,8.679 -6.488,17.868 -8.339,28.196 31.232,14.438 65.43,25.912 109.609,27.404 h 9.134 C -11.981,16.172 0.687,13.87 11.914,10.723 23.316,7.527 34.116,4.585 42.891,-1.589 35.692,-0.712 27.938,-0.387 20.255,0 18.133,0.922 14.301,0.136 11.518,0.397 H 5.163 C 3.562,0.143 0.939,0.912 0,0" /></g><g
           transform="translate(517.8408,320.9243)"
           id="g108"><path
             id="path110"
             style="fill:#84c442;fill-opacity:1;fill-rule:evenodd;stroke:none"
             d="m 0,0 c -40.503,1.624 -72.365,-8.405 -101.668,-19.062 -29.635,-10.78 -57.526,-21.798 -85.783,-34.948 -6.039,7.461 -11.279,15.722 -15.49,25.018 44.073,20.533 86.237,42.968 148.136,45.672 h 9.134 c 14.486,0.325 27.207,-2.283 38.525,-5.561 C 4.283,7.808 15.097,4.387 23.826,-1.986 17.787,-1.01 10.977,-0.809 4.369,-0.398 3.687,0.511 1.337,-0.252 0,0" /></g></g></g><g
       id="g112"><g
         clip-path="url(#clipPath118)"
         id="g114"><g
           id="g120"><g
             id="g122"><path
               id="path132"
               style="fill:url(#radialGradient130);stroke:none"
               d="m 339.259,360.088 c 0,-1.103 0.014,-2.207 0.042,-3.304 v 0 c 30.423,9.585 83.397,21.515 129.051,7.55 v 0 c 62.551,-19.133 84.664,-48.92 120.419,-49.622 v 0 c 5.312,14.115 8.216,29.404 8.216,45.376 v 0 c 0,71.172 -57.694,128.865 -128.863,128.865 v 0 c -71.169,0 -128.865,-57.693 -128.865,-128.865" /></g></g></g></g><g
       id="g134"><g
         clip-path="url(#clipPath140)"
         id="g136"><g
           transform="translate(392.7109,399.1553)"
           id="g142"><path
             id="path144"
             style="fill:#0e6f39;fill-opacity:1;fill-rule:nonzero;stroke:none"
             d="m 0,0 c 0.813,-4.479 -1.7,-8.686 -5.613,-9.397 -3.912,-0.709 -7.741,2.348 -8.555,6.827 -0.811,4.483 1.7,8.689 5.613,9.397 C -4.641,7.537 -0.812,4.48 0,0" /></g><g
           transform="translate(372.2334,392.7124)"
           id="g146"><path
             id="path148"
             style="fill:#0e6f39;fill-opacity:1;fill-rule:nonzero;stroke:none"
             d="m 0,0 c 0,0 9.471,-6.912 14.261,-6.079 4.79,0.832 9.723,2.647 14.273,15.857 0,0 1.832,5.485 7.106,2.863 0,0 5.03,-1.217 -0.813,-7.831 -5.844,-6.617 -11.012,-11.782 -14.493,-19.12 -3.483,-7.338 -9.299,-20.45 -16.003,-24.283 0,0 -3.08,-1.638 -5.593,-0.714 -2.51,0.929 -3.502,1.629 0.251,4.078 3.751,2.45 9.028,5.315 7.651,5.887 -1.376,0.574 -16.855,-8.705 -16.855,-8.705 0,0 -6.236,-3.174 -8.603,-0.077 -2.368,3.103 11.351,7.983 11.351,7.983 0,0 13.36,4.936 14.39,11.179 1.036,6.243 -4.614,10.02 -7.402,11.537 -2.789,1.518 -9.174,5.864 -9.174,5.864 0,0 -6.309,4.243 -1.886,7.505 4.425,3.265 7.354,-1.566 7.354,-1.566 z" /></g><g
           transform="translate(547.0195,383.7827)"
           id="g150"><path
             id="path152"
             style="fill:#0e6f39;fill-opacity:1;fill-rule:nonzero;stroke:none"
             d="m 0,0 c -4.141,-5.243 -3.786,-12.426 0.8,-16.042 4.575,-3.617 11.646,-2.296 15.787,2.949 4.138,5.244 3.785,12.428 -0.798,16.043 C 11.216,6.565 4.145,5.246 0,0" /></g><g
           transform="translate(569.1035,361.3218)"
           id="g154"><path
             id="path156"
             style="fill:#0e6f39;fill-opacity:1;fill-rule:nonzero;stroke:none"
             d="m 0,0 c 0,0 -17.031,-2.425 -22.658,1.951 -5.633,4.38 -10.774,10.134 -7.567,30.388 0,0 1.409,8.367 -7.227,8.601 0,0 -7.352,1.891 -4.346,-10.71 3.007,-12.593 6.143,-22.847 5.597,-34.753 -0.544,-11.907 -2.046,-32.903 3.998,-42.491 0,0 2.856,-4.243 6.748,-4.775 3.896,-0.529 5.661,-0.309 2.491,5.454 -3.173,5.76 -8.034,13.104 -5.857,12.899 2.181,-0.206 15.838,-22.895 15.838,-22.895 0,0 5.891,-8.412 11.093,-6.025 5.201,2.382 -9.207,18.161 -9.207,18.161 0,0 -13.906,15.603 -10.936,24.402 2.965,8.801 12.886,9.802 17.545,9.847 4.654,0.041 15.926,1.268 15.926,1.268 0,0 11.09,1.148 7.612,8.428 C 15.568,7.027 8.446,2.791 8.446,2.791 Z" /></g><g
           transform="translate(488.6309,445.8105)"
           id="g158"><path
             id="path160"
             style="fill:#0e6f39;fill-opacity:1;fill-rule:nonzero;stroke:none"
             d="m 0,0 c 3.064,-7.679 0.11,-16.079 -6.604,-18.753 -6.706,-2.677 -14.626,1.381 -17.693,9.064 -3.064,7.683 -0.111,16.082 6.603,18.757 C -10.991,11.743 -3.069,7.684 0,0" /></g><g
           transform="translate(454.5068,426.9468)"
           id="g162"><path
             id="path164"
             style="fill:#0e6f39;fill-opacity:1;fill-rule:nonzero;stroke:none"
             d="m 0,0 c 0,0 19.352,-8.883 27.573,-5.674 8.226,3.211 16.357,8.226 19.691,33.389 0,0 1.281,10.424 11.612,7.657 0,0 9.389,-0.349 1.376,-14.239 C 52.247,7.251 44.906,-3.81 41.358,-18.13 37.806,-32.45 32.184,-57.892 21.642,-67.138 c 0,0 -4.894,-4.028 -9.696,-3.286 -4.808,0.745 -6.826,1.629 -1.032,7.348 5.793,5.719 14.151,12.717 11.497,13.241 -2.661,0.522 -26.86,-21.583 -26.86,-21.583 0,0 -9.958,-7.903 -15.294,-3.236 -5.327,4.659 17.331,18.3 17.331,18.3 0,0 21.999,13.612 21.577,25.1 -0.415,11.489 -11.831,16.172 -17.345,17.869 -5.507,1.691 -18.448,7.119 -18.448,7.119 0,0 -12.758,5.272 -6.06,12.683 6.694,7.409 13.652,-0.128 13.652,-0.128 z" /></g></g></g><g
       id="g166"><g
         clip-path="url(#clipPath172)"
         id="g168"><g
           transform="translate(111.5322,135.4653)"
           id="g174"><path
             id="path176"
             style="fill:#0e6f39;fill-opacity:1;fill-rule:nonzero;stroke:none"
             d="m 0,0 h 26.533 c 5.754,0 10.016,1.168 12.788,3.516 2.767,2.34 4.155,5.965 4.155,10.868 0,4.899 -1.388,8.522 -4.155,10.869 -2.558,2.558 -6.394,3.836 -11.509,3.836 H 0 Z m -22.697,-62.018 v 98.46 c 0,3.197 1.119,5.914 3.357,8.152 2.237,2.238 4.955,3.356 8.152,3.356 h 41.876 c 11.935,0 20.78,-2.557 26.534,-7.672 5.964,-5.331 8.951,-13.107 8.951,-23.337 C 66.173,10.119 64.679,4.474 61.697,0 59.14,-4.266 55.089,-7.353 49.549,-9.271 c 4.901,-1.708 8.312,-4.266 10.23,-7.674 1.918,-3.195 3.088,-8.631 3.517,-16.303 l 0.639,-13.105 v -4.156 c 0,-1.496 0.106,-2.878 0.32,-4.158 0.639,-3.835 1.918,-6.29 3.836,-7.351 H 43.157 c -1.069,2.129 -1.709,4.366 -1.919,6.714 -0.429,3.407 -0.638,5.753 -0.638,7.031 l -0.321,11.829 c -0.428,6.394 -1.707,10.972 -3.836,13.746 -2.347,2.341 -6.502,3.517 -12.467,3.517 H 0 v -42.837 z" /></g><g
           transform="translate(204.8779,124.5947)"
           id="g178"><path
             id="path180"
             style="fill:#0e6f39;fill-opacity:1;fill-rule:nonzero;stroke:none"
             d="m 0,0 h 32.606 c -0.428,5.756 -1.918,10.015 -4.475,12.787 -2.772,2.982 -6.713,4.476 -11.828,4.476 -4.691,0 -8.527,-1.494 -11.509,-4.476 C 1.809,9.801 0.209,5.539 0,0 m 38.359,-24.935 h 15.985 c -2.347,-8.951 -6.823,-15.773 -13.427,-20.458 -6.608,-4.905 -14.918,-7.354 -24.934,-7.354 -12.147,0 -21.632,3.94 -28.45,11.829 -6.824,7.673 -10.23,18.645 -10.23,32.927 0,13.636 3.301,24.294 9.909,31.967 6.818,7.883 16.304,11.828 28.451,11.828 12.787,0 22.696,-3.836 29.731,-11.508 6.817,-7.888 10.229,-18.86 10.229,-32.927 v -2.238 -1.278 c 0,-1.07 -0.11,-1.814 -0.32,-2.238 H 0 c 0.209,-6.61 1.809,-11.509 4.794,-14.704 2.768,-3.415 6.924,-5.115 12.468,-5.115 3.621,0 6.714,0.742 9.271,2.237 0.638,0.21 1.223,0.583 1.758,1.117 0.53,0.533 1.119,1.121 1.758,1.761 0.21,0.638 1.009,1.488 2.397,2.558 1.384,1.061 3.356,1.596 5.913,1.596" /></g><g
           transform="translate(269.4736,73.4473)"
           id="g182"><path
             id="path184"
             style="fill:#84c442;fill-opacity:1;fill-rule:nonzero;stroke:none"
             d="m 0,0 v 98.46 c 0,3.197 1.117,5.914 3.355,8.152 2.239,2.238 4.956,3.46 8.152,3.676 H 23.655 L 68.41,34.525 v 75.763 H 90.786 V 0 H 67.45 L 22.376,75.764 V 0 Z" /></g><g
           transform="translate(393.6992,124.5947)"
           id="g186"><path
             id="path188"
             style="fill:#84c442;fill-opacity:1;fill-rule:nonzero;stroke:none"
             d="m 0,0 h 32.606 c -0.428,5.756 -1.918,10.015 -4.476,12.787 -2.772,2.982 -6.712,4.476 -11.827,4.476 -4.691,0 -8.527,-1.494 -11.508,-4.476 C 1.809,9.801 0.21,5.539 0,0 m 38.359,-24.935 h 15.984 c -2.346,-8.951 -6.822,-15.773 -13.426,-20.458 -6.607,-4.905 -14.919,-7.354 -24.935,-7.354 -12.146,0 -21.631,3.94 -28.449,11.829 -6.823,7.673 -10.23,18.645 -10.23,32.927 0,13.636 3.301,24.294 9.91,31.967 6.817,7.883 16.303,11.828 28.45,11.828 12.787,0 22.696,-3.836 29.731,-11.508 6.817,-7.888 10.227,-18.86 10.227,-32.927 v -2.238 -1.278 c 0,-1.07 -0.108,-1.814 -0.317,-2.238 H 0 c 0.21,-6.61 1.809,-11.509 4.795,-14.704 2.767,-3.415 6.923,-5.115 12.467,-5.115 3.622,0 6.714,0.742 9.271,2.237 0.638,0.21 1.224,0.583 1.758,1.117 0.53,0.533 1.117,1.121 1.758,1.761 0.21,0.638 1.01,1.488 2.396,2.558 1.385,1.061 3.357,1.596 5.914,1.596" /></g><g
           transform="translate(547.1416,73.4473)"
           id="g190"><path
             id="path192"
             style="fill:#84c442;fill-opacity:1;fill-rule:nonzero;stroke:none"
             d="M 0,0 H -22.377 L -35.484,60.739 -48.59,0 h -22.378 l -23.335,85.034 h 21.737 l 13.426,-58.821 12.149,58.821 h 22.697 l 11.507,-58.821 11.828,51.148 c 1.279,5.116 4.687,7.673 10.23,7.673 h 14.066 z" /></g><g
           transform="translate(660.4766,86.5547)"
           id="g194"><path
             id="path196"
             style="fill:#0e6f39;fill-opacity:1;fill-rule:nonzero;stroke:none"
             d="m 0,0 c -3.836,-5.544 -8.419,-9.592 -13.746,-12.149 -5.543,-2.341 -11.616,-3.516 -18.22,-3.516 -15.773,0 -28.24,5.219 -37.404,15.665 -9.379,10.229 -14.064,24.294 -14.064,42.196 0,17.686 4.579,31.648 13.746,41.878 9.589,10.653 22.269,15.984 38.04,15.984 13.637,0 24.936,-3.306 33.887,-9.91 8.735,-7.033 13.956,-16.2 15.663,-27.492 H 2.558 c -4.475,0 -7.782,2.021 -9.911,6.073 -1.492,2.558 -3.624,4.899 -6.393,7.033 -4.265,2.982 -9.909,4.476 -16.942,4.476 -9.167,0 -16.414,-3.306 -21.738,-9.91 -5.331,-7.034 -7.993,-16.413 -7.993,-28.132 0,-11.937 2.77,-21.314 8.314,-28.13 5.324,-6.61 12.89,-9.912 22.697,-9.912 7.241,0 13.209,2.023 17.899,6.075 4.687,4.258 7.673,10.12 8.951,17.583 h -13.425 c -3.196,0 -5.914,1.117 -8.152,3.355 -2.237,2.238 -3.356,4.956 -3.356,8.152 v 7.353 h 45.714 v -59.779 h -6.074 c -5.969,0 -9.7,2.981 -11.188,8.951 z" /></g><g
           transform="translate(709.7275,124.5947)"
           id="g198"><path
             id="path200"
             style="fill:#0e6f39;fill-opacity:1;fill-rule:nonzero;stroke:none"
             d="m 0,0 h 32.608 c -0.43,5.756 -1.919,10.015 -4.476,12.787 -2.774,2.982 -6.714,4.476 -11.829,4.476 -4.691,0 -8.527,-1.494 -11.506,-4.476 C 1.811,9.801 0.212,5.539 0,0 m 38.362,-24.935 h 15.983 c -2.346,-8.951 -6.823,-15.773 -13.426,-20.458 -6.609,-4.905 -14.921,-7.354 -24.934,-7.354 -12.149,0 -21.634,3.94 -28.452,11.829 -6.822,7.673 -10.23,18.645 -10.23,32.927 0,13.636 3.301,24.294 9.912,31.967 6.815,7.883 16.304,11.828 28.45,11.828 12.787,0 22.697,-3.836 29.729,-11.508 6.817,-7.888 10.23,-18.86 10.23,-32.927 v -2.238 -1.278 c 0,-1.07 -0.108,-1.814 -0.318,-2.238 H 0 c 0.212,-6.61 1.811,-11.509 4.797,-14.704 2.767,-3.415 6.924,-5.115 12.467,-5.115 3.62,0 6.712,0.742 9.269,2.237 0.641,0.21 1.224,0.583 1.758,1.117 l 1.761,1.761 c 0.209,0.638 1.009,1.488 2.395,2.558 1.383,1.061 3.358,1.596 5.915,1.596" /></g><g
           transform="translate(845.7598,73.4473)"
           id="g202"><path
             id="path204"
             style="fill:#0e6f39;fill-opacity:1;fill-rule:nonzero;stroke:none"
             d="m 0,0 h -11.188 c -3.197,0 -5.809,1.009 -7.833,3.036 -2.027,2.024 -3.036,4.636 -3.036,7.832 v 43.477 c 0,5.115 -1.548,8.841 -4.635,11.189 -3.092,2.341 -6.553,3.516 -10.389,3.516 -3.837,0 -7.249,-1.175 -10.231,-3.516 -2.985,-2.348 -4.473,-6.074 -4.473,-11.189 V 0 h -22.38 v 49.868 c 0,14.491 3.781,24.188 11.35,29.091 7.562,4.9 15.927,7.564 25.093,7.993 9.375,0 18.006,-2.454 25.895,-7.352 C -3.944,74.694 0,64.785 0,49.868 Z" /></g></g></g><g
       id="g206"><g
         clip-path="url(#clipPath212)"
         id="g208"><g
           id="g214"><g
             id="g216"><path
               id="path228"
               style="fill:url(#radialGradient226);stroke:none"
               d="m 580.481,240.724 c 22.863,-2.505 45.676,-5.725 68.417,-9.589 v 0 c 28.283,-4.779 56.445,-10.594 84.487,-17.27 v 0 c 28.082,-6.596 55.942,-14.265 83.692,-23.053 v 0 c -25.4,14.385 -52.468,25.579 -79.819,35.875 v 0 c -27.445,10.089 -55.539,18.513 -84.023,25.454 v 0 c -16.876,4.084 -33.902,7.636 -51.042,10.628 v 0 c -5.408,-6.396 -12.655,-14.138 -21.712,-22.045 m -276.942,14.137 c -28.588,-6.75 -56.757,-15.206 -84.123,-25.683 v 0 c -13.642,-5.355 -27.173,-10.938 -40.352,-17.289 v 0 c -13.162,-6.351 -26.163,-13.096 -38.377,-21.077 v 0 c 6.784,2.647 13.592,5.127 20.474,7.403 v 0 c 6.847,2.349 13.722,4.582 20.638,6.67 v 0 c 13.824,4.183 27.662,8.181 41.646,11.594 v 0 c 27.894,7.043 55.998,12.862 84.261,17.417 v 0 c 16.005,2.598 32.054,4.806 48.142,6.625 v 0 c -8.18,7.55 -14.704,14.958 -19.628,21.199 v 0 c -10.948,-2.035 -21.844,-4.321 -32.681,-6.859" /></g></g></g></g></g></svg>
